<svg width="161" height="172" viewBox="0 0 161 172" fill="none" xmlns="http://www.w3.org/2000/svg">
<path d="M17.7904 136.919C17.7904 136.919 17.8489 129.012 12.8926 123.084C8.50219 117.833 6.16914 114.502 7.55512 112.969C8.9411 111.435 11.9072 111.065 15.9184 115.308C19.9299 119.55 20.2402 131.321 19.6866 133.984L17.7904 136.919Z" class="svg-primar-color"/>
<path d="M17.6213 126.083C16.7054 125.483 15.6488 125.227 14.8112 125.124C14.6486 125.104 14.4882 125.083 14.3293 125.062C13.9045 124.388 13.4281 123.725 12.8926 123.084C9.35554 118.854 7.15353 115.87 7.15625 114.068C7.15685 113.633 7.28576 113.267 7.55507 112.969C8.12309 112.34 8.95731 111.907 10.0196 111.907C11.5488 111.907 13.5514 112.804 15.9184 115.308C16.5835 116.011 17.1465 116.922 17.6213 117.962V123.796C15.4743 118.155 12.0905 114.818 10.019 113.191C9.97372 113.155 9.92009 113.138 9.86681 113.138C9.79287 113.138 9.72006 113.171 9.67129 113.234C9.58709 113.342 9.60627 113.5 9.71406 113.584C11.8973 115.298 15.57 118.956 17.6213 125.29V126.083Z" class="svg-primary-color"/>
<path d="M18.6446 128.418C18.5301 128.418 18.427 128.338 18.4022 128.221C16.6681 120.059 12.2143 115.547 9.71391 113.584C9.60611 113.499 9.58693 113.342 9.67113 113.234C9.75494 113.126 9.91042 113.106 10.0189 113.191C12.5724 115.196 17.1196 119.801 18.887 128.117C18.9157 128.251 18.8305 128.384 18.6966 128.413L18.6446 128.418Z" fill="white"/>
<path d="M17.6212 139.86L15.6075 141.03C15.6075 141.03 15.0926 139.211 12.8896 138.692C10.6866 138.172 8.3944 138.276 6.85126 136.353C5.30826 134.43 7.18674 132.338 6.85126 130.921C6.51573 129.503 6.29176 129.096 3.52832 127.681C0.765275 126.266 -0.327601 123.916 1.75224 122.323C3.83208 120.729 7.21271 121.9 9.2474 123.297C11.0634 124.545 12.7878 124.874 14.8111 125.124C16.8347 125.374 20.1394 126.513 19.6344 131.248C19.1294 135.982 17.6212 139.86 17.6212 139.86Z" class="svg-primary-color"/>
<path d="M9.86653 133.631C9.76161 133.631 9.66422 133.564 9.63057 133.459C9.58874 133.327 9.66055 133.187 9.79065 133.145C9.97244 133.087 14.2624 131.724 16.0735 133.188C16.1805 133.274 16.1974 133.431 16.1116 133.539C16.0264 133.646 15.8703 133.663 15.7632 133.576C14.1569 132.279 9.98409 133.606 9.94226 133.619L9.86653 133.631Z" fill="white"/>
<path d="M17.8481 139.477C17.7232 139.477 17.6156 139.382 17.6023 139.254C16.4985 128.755 3.92541 123.774 3.79883 123.725C3.67106 123.675 3.60713 123.531 3.65614 123.402C3.70531 123.274 3.8478 123.21 3.97636 123.259C4.10606 123.309 16.959 128.397 18.0949 139.201C18.1093 139.338 18.0106 139.461 17.8748 139.475L17.8481 139.477Z" fill="white"/>
<path d="M141.118 132.957C141.176 132.786 143.301 121.774 141.118 113.967C139.117 106.809 136.55 104.167 132.863 103.585C129.177 103.003 127.577 105.672 129.535 109.29C131.493 112.908 136.203 117.715 137.361 125.799C137.837 129.128 138.233 132.02 138.233 132.02L141.118 132.957Z" class="svg-primar-color"/>
<path d="M139.516 129.841C138.898 129.177 138.271 128.483 137.64 127.762C137.552 127.14 137.458 126.479 137.361 125.8C136.203 117.715 131.493 112.908 129.535 109.29C128.962 108.232 128.694 107.255 128.693 106.417C128.692 104.654 129.873 103.505 131.896 103.505C132.199 103.505 132.522 103.531 132.863 103.585C136.55 104.167 139.117 106.809 141.118 113.967C141.706 116.069 141.982 118.404 142.069 120.696C142.031 120.696 141.993 120.695 141.955 120.695C140.312 120.695 138.917 121.568 138.949 125.689C138.96 127.039 139.198 128.492 139.516 129.841Z" class="svg-primary-color"/>
<path d="M139.879 126.636L139.865 126.635C139.728 126.628 139.624 126.509 139.631 126.372C140.139 117.46 137.232 109.501 132.045 105.601C131.935 105.518 131.913 105.362 131.995 105.252C132.077 105.142 132.233 105.119 132.342 105.201C137.661 109.2 140.643 117.323 140.126 126.401C140.119 126.533 140.009 126.636 139.879 126.636Z" fill="white"/>
<path d="M146.827 138.692C146.542 136.645 147.714 133.57 150.492 132.846C153.271 132.121 154.513 130.511 153.509 128.755C152.505 127 152.742 125.391 155.266 124.661C157.79 123.931 159.999 122.657 158.545 119.985C157.491 118.047 157.257 116.792 159.844 112.97C161.989 109.8 160.235 107.941 157.548 108.293C154.86 108.645 153.203 111.858 151.525 112.4C150.769 112.645 150.274 112.194 149.755 111.743C149.123 111.193 148.457 110.644 147.24 111.35C145.025 112.637 145.162 115.933 145.091 118.231C145.022 120.528 144.872 121.049 142.869 120.767C140.866 120.485 138.911 120.819 138.949 125.689C138.982 129.869 141.2 135.043 141.2 135.043L146.827 138.692Z" class="svg-primary-color"/>
<path d="M143.312 135.575L143.285 135.573C143.148 135.558 143.051 135.435 143.065 135.298C144.461 122.737 155.178 112.145 157.971 109.996C158.08 109.912 158.235 109.933 158.318 110.043C158.401 110.153 158.381 110.309 158.272 110.393C155.514 112.514 144.934 122.968 143.558 135.353C143.544 135.481 143.437 135.575 143.312 135.575Z" fill="white"/>
<path d="M148.198 122.151C148.097 122.151 148.003 122.089 147.966 121.989C147.918 121.86 147.983 121.716 148.111 121.668C152.11 120.171 156.639 120.876 156.829 120.907C156.964 120.929 157.056 121.057 157.034 121.193C157.013 121.329 156.882 121.419 156.751 121.4C156.706 121.392 152.157 120.685 148.284 122.135L148.198 122.151Z" fill="white"/>
<path d="M144.64 129.696C144.571 129.696 144.503 129.668 144.454 129.612C141.788 126.575 141.212 122.95 141.189 122.797C141.168 122.662 141.261 122.535 141.396 122.514C141.534 122.495 141.658 122.586 141.679 122.722C141.684 122.758 142.259 126.358 144.826 129.282C144.916 129.385 144.907 129.543 144.804 129.634C144.757 129.676 144.698 129.696 144.64 129.696Z" fill="white"/>
<path d="M17.6211 62.6938V139.86L96.1361 94.2626L96.1356 24.1105L37.7529 58.017L35.7397 52.171L17.6211 62.6938Z" class="svg-primar-color"/>
<path d="M17.6211 139.86V62.6938L35.7397 52.171L37.7529 58.017L65.9369 41.6493V43.9869L21.647 69.7088L17.6211 139.86Z" fill="#0C3C35"/>
<path d="M17.6211 139.86L21.647 69.7088L100.161 24.1105L96.1361 94.2626L17.6211 139.86Z" fill="#E3E3E2"/>
<path d="M17.6211 139.86L23.6601 70.8779L102.175 25.2796L96.1361 94.2626L17.6211 139.86Z" class="svg-primar-color"/>
<path d="M17.6211 139.86L23.6601 70.8779L65.9369 46.3251V55.6793L49.8325 65.0325L47.8193 59.186L29.7007 69.7088V132.845L17.6211 139.86Z" fill="#0C3C35"/>
<path d="M29.7007 69.709V146.876L108.216 101.278L108.215 31.1257L49.8325 65.0326L47.8193 59.1862L29.7007 69.709Z" class="svg-primar-color"/>
<path d="M29.7007 146.876V69.709L47.8193 59.1862L49.8325 65.0327L65.9369 55.6795V58.0177L33.7265 76.724L29.7007 146.876Z" class="svg-primar-color"/>
<path d="M29.7007 146.876L33.7265 76.724L112.241 31.1257L108.216 101.278L29.7007 146.876Z" fill="#E3E3E2"/>
<path d="M29.7007 146.876L35.7397 77.8936L114.254 32.2948L108.216 101.278L29.7007 146.876Z" class="svg-primar-color"/>
<path d="M29.7007 146.876L35.7397 77.8936L65.9369 60.3558V72.0476L63.9243 73.2167L61.9111 67.3708L43.792 77.8936V138.692L29.7007 146.876Z" class="svg-primar-color"/>
<path d="M96.1362 171.429C82.0434 163.245 68.9692 154.347 63 143.905L81.1191 133.382L96.1362 171.429Z" fill="#E3E3E2"/>
<path d="M43.792 77.8934V155.061L122.307 109.462L122.307 39.3096L63.9243 73.2166L61.9111 67.3707L43.792 77.8934Z" class="svg-primar-color"/>
<path d="M43.792 155.061V77.8934L61.9111 67.3707L63.9243 73.2166L65.937 72.0475V88.4167L57.8848 93.093L43.7925 155.061H43.792Z" class="svg-tint-color"/>
<path d="M66.4121 100.709C66.2143 100.709 66.1846 100.479 66.1846 100.342V34.5227C66.1846 34.0601 66.5211 33.4743 66.9191 33.2425L123.585 0.333611C123.681 0.278275 123.77 0.248863 123.845 0.248863C124.042 0.248863 124.072 0.478683 124.072 0.615784V66.4355C124.072 66.8976 123.736 67.4839 123.337 67.7153L66.6713 100.625C66.5761 100.68 66.4864 100.709 66.4121 100.709Z" fill="white"/>
<path d="M123.845 -0.000411987C123.729 -0.000411987 123.6 0.037468 123.461 0.117233L66.7954 33.0271C66.3211 33.3023 65.937 33.9718 65.937 34.5227V100.342C65.937 100.732 66.1303 100.958 66.4123 100.958C66.5273 100.958 66.6576 100.92 66.7954 100.84L123.461 67.9311C123.936 67.6559 124.32 66.9859 124.32 66.4355V0.615776C124.32 0.225418 124.126 -0.000411987 123.845 -0.000411987ZM123.812 0.503609C123.818 0.527534 123.825 0.56443 123.825 0.615776V66.4355C123.825 66.8064 123.533 67.3139 123.214 67.4994L66.5476 100.409C66.502 100.435 66.4673 100.448 66.4445 100.455C66.4386 100.431 66.4326 100.393 66.4326 100.342V34.5227C66.4326 34.1513 66.7235 33.6443 67.0432 33.4588L123.709 0.549477C123.755 0.52256 123.79 0.50959 123.812 0.503609Z" class="svg-primar-color"/>
<path d="M65.937 88.4167V34.5227C65.937 33.9718 66.3211 33.3023 66.7954 33.0271L123.461 0.117218C123.6 0.0374527 123.729 -0.000434875 123.845 -0.000434875C124.126 -0.000434875 124.32 0.225403 124.32 0.615761V54.5098L123.825 54.7975V0.615761C123.825 0.564407 123.818 0.527519 123.812 0.503586C123.79 0.509567 123.755 0.522537 123.709 0.549461L67.0432 33.4588C66.7235 33.6443 66.4326 34.1513 66.4326 34.5227V88.1286L65.937 88.4167Z" fill="#E6F7FF"/>
<path d="M71.9771 37.0329L92.1088 25.3411V48.7253L71.9771 60.4166V37.0329Z" class="svg-primar-color"/>
<path d="M71.9771 60.4166V37.0329L92.1088 25.3411V48.7253L71.9771 60.4166Z" class="svg-tint-color"/>
<path d="M89.0888 31.187V38.202L88.4579 38.5565C88.4579 38.5565 88.4579 37.5943 88.4579 36.4073C88.4579 35.2207 87.4974 34.8164 86.3119 35.5044L77.773 40.4634C76.5875 41.1519 75.627 42.672 75.627 43.859V46.0082L74.9961 46.3866V39.3711L89.0888 31.187Z" fill="white"/>
<path d="M85.2062 49.0663C84.1733 49.666 83.3362 49.0369 83.3362 47.6594V36.4077L80.7501 37.8236V49.1615C80.7501 50.5385 79.913 52.1403 78.8802 52.7405L77.0103 53.8264V54.5707L87.0761 48.7253V47.9804C87.0761 47.9804 86.239 48.4665 85.2062 49.0663Z" fill="white"/>
<path d="M96.1353 24.172C96.1357 24.8176 96.7121 25.0065 97.4229 24.5937L116.993 13.2279C117.704 12.8147 118.28 11.9567 118.28 11.311C118.28 10.6654 117.704 10.4765 116.993 10.8893L97.4229 22.2551C96.7117 22.6679 96.1353 23.5264 96.1353 24.172Z" fill="#365462"/>
<path d="M96.1353 31.187C96.1357 31.8326 96.7121 32.0216 97.4229 31.6088L116.993 20.243C117.704 19.8302 118.28 18.9717 118.28 18.3261C118.28 17.6804 117.704 17.4915 116.993 17.9043L97.4229 29.2701C96.7117 29.6834 96.1353 30.5414 96.1353 31.187Z" fill="#365462"/>
<path d="M96.1353 38.2021C96.1357 38.8482 96.7121 39.0367 97.4229 38.6239L116.993 27.2586C117.704 26.8453 118.28 25.9873 118.28 25.3412C118.28 24.6956 117.704 24.5071 116.993 24.9199L97.4229 36.2852C96.7117 36.6985 96.1353 37.557 96.1353 38.2021Z" fill="#365462"/>
<path d="M96.1353 45.2175C96.1357 45.8631 96.7121 46.0516 97.4229 45.6388L116.993 34.2735C117.704 33.8607 118.28 33.0022 118.28 32.3561C118.28 31.7105 117.704 31.5215 116.993 31.9348L97.4229 43.3006C96.7117 43.7134 96.1353 44.5719 96.1353 45.2175Z" fill="#365462"/>
<path d="M71.9771 66.2651C71.9771 66.9112 72.5534 67.0997 73.2647 66.6869L116.993 41.2891C117.704 40.8758 118.28 40.0178 118.28 39.3717C118.28 38.7261 117.704 38.5371 116.993 38.9504L73.2642 64.3482C72.5534 64.761 71.9771 65.6195 71.9771 66.2651Z" fill="#365462"/>
<path d="M71.9771 73.2805C71.9771 73.9261 72.5534 74.1151 73.2647 73.7018L116.993 48.304C117.704 47.8907 118.28 47.0327 118.28 46.3866C118.28 45.741 117.704 45.552 116.993 45.9653L73.2642 71.3631C72.5534 71.7764 71.9771 72.6344 71.9771 73.2805Z" fill="#365462"/>
<path d="M71.9771 80.2956C71.9771 80.9413 72.5534 81.1302 73.2647 80.7169L116.993 55.3191C117.704 54.9063 118.28 54.0478 118.28 53.4022C118.28 52.7561 117.704 52.5677 116.993 52.9805L73.2642 78.3787C72.5534 78.7915 71.9771 79.65 71.9771 80.2956Z" fill="#365462"/>
<path d="M43.7925 155.061L57.8847 93.093L136.399 47.4947L122.307 109.462L43.7925 155.061Z" class="svg-tint-color"/>
<path d="M63 97.9463V143.905L81.1191 133.382L81.1196 87.4241L63 97.9463Z" class="svg-primar-color"/>
<path d="M63 143.905V97.9464L63.9243 97.4099C63.9243 97.4129 63.9243 97.4154 63.9243 97.4184C63.9243 104.812 64.0512 123.035 70.7127 139.426L63 143.905Z" class="svg-primar-color"/>
<path d="M96.1524 171.132C94.6125 169.978 79.755 158.553 72.2019 142.236C64.1621 124.866 64.1695 104.608 64.172 96.9817V96.7444L118.033 65.4643C118.03 73.1598 118.041 93.447 126.109 110.878C133.487 126.816 147.776 138.11 150.042 139.835L96.1524 171.132Z" fill="white"/>
<path d="M118.281 65.0326L63.9245 96.6004C63.9245 103.772 63.7738 124.618 71.9777 142.341C80.0304 159.737 96.1364 171.429 96.1364 171.429L150.493 139.861C150.493 139.861 134.387 128.169 126.334 110.772C118.131 93.0498 118.281 72.2047 118.281 65.0326ZM117.785 65.8961C117.786 73.9117 117.94 93.82 125.885 110.983C133.015 126.385 146.575 137.464 149.597 139.806L96.1706 170.833C94.0821 169.251 79.7821 158.019 72.4272 142.13C64.4107 124.811 64.4176 104.593 64.4201 96.9818V96.8885L117.785 65.8961Z" class="svg-primar-color"/>
<path d="M96.1362 171.429C96.1362 171.429 80.0303 159.737 71.9775 142.341C71.5315 141.377 71.1107 140.405 70.7127 139.426C64.0512 123.035 63.9243 104.812 63.9243 97.4185C63.9243 97.1288 63.9243 96.8561 63.9243 96.6004L118.281 65.0326C118.281 65.2884 118.281 65.5611 118.281 65.8507C118.281 73.6863 118.423 93.6814 126.334 110.772C134.387 128.169 150.493 139.861 150.493 139.861L96.1362 171.429ZM64.4199 97.43C64.4199 105.362 64.5632 125.141 72.4271 142.13C79.782 158.019 94.0819 169.251 96.1704 170.833L149.597 139.806C146.575 137.464 133.015 126.385 125.885 110.983C117.94 93.82 117.786 73.9117 117.785 65.8961L64.4199 96.8885V96.9818C64.4199 97.1268 64.4199 97.2759 64.4199 97.43Z" fill="#B0E4DC"/>
<path d="M112.134 75.6172L94.9433 85.601C94.2321 86.0143 93.671 86.8609 93.6948 87.493C93.7191 88.1247 94.3193 88.3022 95.0305 87.8889L112.221 77.905C112.932 77.4922 113.485 76.6452 113.461 76.0136C113.437 75.3819 112.845 75.2044 112.134 75.6172Z" fill="#365462"/>
<path d="M112.5 82.42L95.3094 92.4038C94.5977 92.8166 94.0595 93.6506 94.1125 94.2658C94.165 94.881 94.7895 95.0441 95.5002 94.6313L112.692 84.6474C113.403 84.2341 113.931 83.4016 113.879 82.7864C113.826 82.1717 113.211 82.0072 112.5 82.42Z" fill="#365462"/>
<path d="M113.187 89.0365L95.996 99.0203C95.2848 99.4331 94.7713 100.252 94.8561 100.849C94.9408 101.446 95.5906 101.594 96.3018 101.181L113.493 91.1972C114.204 90.7839 114.707 89.9658 114.622 89.3695C114.538 88.7728 113.898 88.6232 113.187 89.0365Z" fill="#365462"/>
<path d="M114.217 95.4527L97.0269 105.437C96.3152 105.85 95.8285 106.654 95.945 107.232C96.0614 107.81 96.7384 107.942 97.4496 107.529L114.64 97.5456C115.351 97.1323 115.827 96.3307 115.711 95.7529C115.594 95.1751 114.928 95.04 114.217 95.4527Z" fill="#365462"/>
<path d="M115.615 101.656L98.4246 111.64C97.7134 112.053 97.2544 112.841 97.4066 113.398C97.5587 113.956 98.265 114.071 98.9757 113.658L116.167 103.674C116.878 103.261 117.325 102.476 117.173 101.919C117.02 101.361 116.327 101.243 115.615 101.656Z" fill="#365462"/>
<path d="M117.404 107.633L75.506 131.965C74.7948 132.379 74.3666 133.149 74.5594 133.683C74.7512 134.217 75.4897 134.313 76.2009 133.9L118.099 109.567C118.81 109.154 119.225 108.388 119.033 107.854C118.84 107.32 118.115 107.219 117.404 107.633Z" fill="#365462"/>
<path d="M119.637 113.34L77.7392 137.674C77.028 138.087 76.6379 138.836 76.8733 139.345C77.1078 139.854 77.8789 139.931 78.5896 139.518L120.488 115.185C121.199 114.772 121.582 114.026 121.347 113.517C121.111 113.007 120.348 112.928 119.637 113.34Z" fill="#365462"/>
<path d="M122.37 118.781L80.4714 143.114C79.7607 143.527 79.4063 144.257 79.6878 144.739C79.9698 145.221 80.7816 145.273 81.4933 144.86L123.391 120.526C124.102 120.114 124.443 119.392 124.162 118.91C123.879 118.428 123.081 118.368 122.37 118.781Z" fill="#365462"/>
<path d="M125.595 123.923L83.6969 148.255C82.9857 148.669 82.667 149.378 82.9912 149.836C83.3163 150.293 84.1608 150.325 84.8715 149.912L126.77 125.579C127.481 125.166 127.789 124.464 127.465 124.007C127.14 123.55 126.306 123.51 125.595 123.923Z" fill="#365462"/>
<path d="M129.251 128.813L87.3531 153.147C86.6419 153.559 86.354 154.252 86.7163 154.687C87.0781 155.122 87.9523 155.137 88.664 154.723L130.562 130.391C131.273 129.978 131.552 129.294 131.19 128.859C130.828 128.423 129.962 128.4 129.251 128.813Z" fill="#365462"/>
<path d="M133.301 133.474L91.4037 157.807C90.692 158.22 90.4328 158.895 90.8298 159.311C91.2258 159.726 92.1278 159.724 92.839 159.311L134.737 134.979C135.448 134.565 135.7 133.898 135.303 133.483C134.906 133.067 134.013 133.061 133.301 133.474Z" fill="#365462"/>
<path d="M137.73 137.923L95.8322 162.255C95.1215 162.668 94.8896 163.328 95.3202 163.724C95.7504 164.12 96.6802 164.102 97.3914 163.688L139.29 139.356C140.001 138.943 140.224 138.291 139.794 137.895C139.363 137.499 138.442 137.509 137.73 137.923Z" fill="#365462"/>
<path d="M88.7143 89.2189L68.9482 100.698C69.1683 107.899 69.9846 118.293 72.9805 128.755L92.7466 117.276C89.7506 106.813 88.9338 96.4203 88.7143 89.2189Z" class="svg-primar-color"/>
<path d="M72.9805 128.755C69.991 118.316 69.1718 107.943 68.9497 100.744C69.0077 102.635 69.1093 104.749 69.2788 107.022C69.4602 107.052 69.649 107.067 69.8448 107.067C70.4891 107.067 71.2058 106.902 71.9635 106.546C74.7504 105.239 77.0099 101.906 77.0099 99.103C77.0099 97.9882 76.6486 97.1308 76.0439 96.5774L68.9482 100.698L88.7143 89.2189C88.8858 94.83 89.419 102.379 91.0635 110.389C89.7427 108.707 87.0683 103.562 85.9245 101.318C85.8313 101.135 85.6593 101.047 85.4873 101.047C85.2836 101.047 85.0804 101.17 85.0091 101.402C83.0291 107.793 82.8641 114.49 82.8641 114.49C81.2751 113.225 80.1327 111.966 78.6687 109.792C78.579 109.659 78.4427 109.597 78.3079 109.597C78.121 109.597 77.9367 109.715 77.8817 109.929C76.8027 114.107 76.5326 118.251 76.5321 121.353C76.5321 124.457 76.8022 126.52 76.8042 126.535L72.9805 128.755ZM68.9492 100.743C68.9492 100.739 68.9492 100.736 68.9492 100.732C68.9492 100.736 68.9492 100.739 68.9492 100.743Z" fill="#F8F8F9"/>
<path d="M77.0099 99.1031C77.0099 97.9883 76.6486 97.1309 76.044 96.5775L68.9482 100.698C69.0062 102.601 69.1078 104.732 69.2788 107.022C70.0569 107.151 70.9758 107.009 71.9636 106.546C74.7504 105.239 77.0099 101.906 77.0099 99.1031Z" class="svg-primar-color"/>
<path d="M69.8448 107.067C69.649 107.067 69.4602 107.052 69.2788 107.022C69.1078 104.732 69.0062 102.601 68.9482 100.698L76.044 96.5774C76.6486 97.1308 77.0099 97.9883 77.0099 99.103C77.0099 101.906 74.7504 105.239 71.9636 106.546C71.2058 106.902 70.4891 107.067 69.8448 107.067Z" fill="#D1D1D1"/>
<path d="M91.0704 110.397L91.0699 110.397C89.7516 108.724 87.0703 103.566 85.9245 101.318C85.7213 100.918 85.1409 100.974 85.0091 101.402C83.0291 107.793 82.8641 114.49 82.8641 114.49C81.2751 113.225 80.1327 111.967 78.6687 109.792C78.4561 109.476 77.9768 109.561 77.8817 109.929C75.7198 118.301 76.8042 126.535 76.8042 126.535L92.7466 117.276C92.086 114.968 91.5358 112.666 91.0704 110.397Z" class="svg-primar-color"/>
<path d="M76.8043 126.535C76.8023 126.521 76.5322 124.458 76.5322 121.354C76.5327 118.251 76.8028 114.107 77.8818 109.929C77.9368 109.716 78.1212 109.598 78.308 109.598C78.4428 109.598 78.5791 109.659 78.6688 109.792C80.1329 111.967 81.2752 113.225 82.8642 114.49C82.8642 114.49 83.0292 107.793 85.0092 101.402C85.0805 101.17 85.2838 101.047 85.4875 101.047C85.6594 101.047 85.8314 101.135 85.9246 101.318C87.0704 103.566 89.7517 108.724 91.07 110.397L91.0705 110.397C91.5359 112.666 92.086 114.968 92.7467 117.276L76.8043 126.535Z" fill="#D1D1D1"/>
</svg>
