<svg width="52" height="52" viewBox="0 0 52 52" fill="none" xmlns="http://www.w3.org/2000/svg">
<path d="M2 34C2 31.7909 3.79086 30 6 30H18C20.2091 30 22 31.7909 22 34V46C22 48.2091 20.2091 50 18 50H6C3.79086 50 2 48.2091 2 46V34Z" class="svg-tint-color"/>
<path d="M0 10C0 7.79086 1.79086 6 4 6H18C20.2091 6 22 7.79086 22 10V24C22 26.2091 20.2091 28 18 28H4C1.79086 28 0 26.2091 0 24V10Z" class="svg-primary-color"/>
<path d="M24 34C24 31.7909 25.7909 30 28 30H42C44.2091 30 46 31.7909 46 34V48C46 50.2091 44.2091 52 42 52H28C25.7909 52 24 50.2091 24 48V34Z" class="svg-primary-color"/>
<path d="M24 4C24 1.79086 25.7909 0 28 0H48C50.2091 0 52 1.79086 52 4V24C52 26.2091 50.2091 28 48 28H28C25.7909 28 24 26.2091 24 24V4Z" class="svg-tint-color"/>
</svg>
