<svg width="53" height="49" viewBox="0 0 53 49" fill="none" xmlns="http://www.w3.org/2000/svg">
<path d="M45.5071 31L36.1158 13H50.3333C51.4378 13 52.3333 13.8954 52.3333 15V29C52.3333 30.1046 51.4378 31 50.3333 31H45.5071Z" class="svg-tint-color"/>
<path d="M16.2307 21.2796L27.3331 0L51.3331 46H24.5136C26.8888 43.3462 28.3331 39.8418 28.3331 36C28.3331 28.707 23.1284 22.6296 16.2307 21.2796Z" class="svg-primary-color"/>
<path d="M26.3333 36C26.3333 43.1797 20.513 49 13.3333 49C6.15355 49 0.333252 43.1797 0.333252 36C0.333252 28.8203 6.15355 23 13.3333 23C20.513 23 26.3333 28.8203 26.3333 36Z" class="svg-tint-color"/>
</svg>
